<?xml version="1.0" encoding="utf-8"?>
<!-- Generator: Adobe Illustrator 24.2.3, SVG Export Plug-In . SVG Version: 6.00 Build 0)  -->
<svg version="1.1" id="Слой_1" xmlns="http://www.w3.org/2000/svg" xmlns:xlink="http://www.w3.org/1999/xlink" x="0px" y="0px"
	 viewBox="0 0 1187.79 1153.64" style="enable-background:new 0 0 1187.79 1153.64;" xml:space="preserve">
<g>
	<path d="M909.29,884.57c-90.96,5.92-181.94,11.48-272.86,17.9c-56.68,4-113.22,9.93-169.9,13.74
		c-31.38,2.11-62.35-2.03-91.01-16.32c-36.56-18.23-55.97-54.25-52.17-94.95c2.55-27.38,11.81-52.53,24.43-76.62
		c1.75-3.34,2.11-6.22,1.02-9.88C287.8,513.95,226.9,309.45,166.13,104.89c-1.32-4.43-3.22-5.49-7.57-5.46
		c-36.17,0.18-72.33,0.15-108.5,0.08C26.21,99.46,5.85,83.01,1.09,60.15C-3.75,36.97,7.84,13.83,29.89,4.48
		c6.41-2.72,13.85-4.15,20.83-4.2c49.83-0.35,99.67-0.34,149.5-0.13c24.62,0.1,42.43,13.84,49.49,37.46
		c12.78,42.77,25.57,85.54,38.08,128.4c1.51,5.17,3.54,6.89,9.07,6.89c278.67-0.16,557.33-0.15,836-0.05
		c6.43,0,13.11,0.41,19.26,2.13c24.04,6.71,39.34,30.44,34.92,55.13c-6.81,38.04-14.46,75.93-21.77,113.88
		c-19.44,100.93-38.9,201.86-58.35,302.78c-1.23,6.38-2.39,12.77-3.75,19.13c-4.76,22.33-20.85,37.43-43.44,40.26
		c-37.03,4.63-74.1,8.99-111.15,13.48c-51.44,6.24-102.87,12.52-154.31,18.74c-56.57,6.84-113.15,13.59-169.72,20.43
		c-56.4,6.82-112.8,13.72-169.2,20.58c-14.55,1.77-29.12,3.45-43.66,5.35c-1.48,0.19-3.75,1.37-4.05,2.51
		c-2.28,8.66-4.64,17.34-6.02,26.17c-1.25,8.04,2.57,14.48,10.32,16.78c10.46,3.11,21.23,6.53,31.98,7.01
		c15.89,0.7,31.92-0.66,47.84-1.87c71.95-5.46,143.85-11.48,215.81-16.73c81.78-5.96,163.64-10.83,245.64-12.32
		c31.64-0.58,63.32-0.06,94.97,0.66c22.61,0.51,39.48,18.99,38.47,40.78c-1.01,21.9-19.26,38.12-41.83,37.56
		c-22.65-0.55-45.32-1.11-67.98-1.03c-22.49,0.08-44.99,0.97-67.48,1.5C909.34,885.35,909.31,884.96,909.29,884.57z M564.87,431.87
		c0-53.58,0-106.34,0-159.3c-81.7,0-163.18,0-245,0c0.48,1.91,0.78,3.35,1.2,4.75c14.83,49.78,29.73,99.54,44.4,149.37
		c1.22,4.14,3,5.28,7.18,5.27c62.13-0.14,124.27-0.09,186.4-0.09C560.85,431.87,562.64,431.87,564.87,431.87z M612.18,660.14
		c68.34-8.26,136.02-16.45,203.84-24.65c0-52.31,0-104.06,0-156.5c-2.03,0-3.81,0-5.6,0c-64.14,0-128.28,0.04-192.42-0.09
		c-4.41-0.01-5.96,0.92-5.94,5.71c0.18,56.64,0.11,113.28,0.11,169.93C612.18,656.17,612.18,657.79,612.18,660.14z M612.55,272.45
		c0,53.28,0,106.15,0,159c68.05,0,135.74,0,203.46,0c0-53.17,0-105.93,0-159C748.18,272.45,680.63,272.45,612.55,272.45z
		 M863.73,272.36c0,53.35,0,106.23,0,159.17c1,0.14,1.65,0.32,2.31,0.32c59.15,0.02,118.3,0,177.45,0.09c3.03,0,3.92-1.21,4.45-3.94
		c9.63-50.38,19.36-100.75,29.05-151.12c0.27-1.39,0.37-2.82,0.59-4.5C1006.13,272.36,935.19,272.36,863.73,272.36z M381.56,479.25
		c0.27,1.49,0.33,2.31,0.56,3.07c19.32,64.97,38.69,129.93,57.93,194.92c0.96,3.24,2.6,3.55,5.45,3.19
		c32.73-4.04,65.48-7.98,98.22-11.96c7.04-0.86,14.08-1.77,21.03-2.64c0-62.52,0-124.42,0-186.58
		C503.67,479.25,442.92,479.25,381.56,479.25z M863.68,629.5c1.14,0,1.96,0.08,2.76-0.01c47.14-5.71,94.27-11.47,141.41-17.09
		c3.61-0.43,4.9-1.86,5.57-5.41c7.77-41.08,15.74-82.13,23.64-123.18c0.27-1.4,0.43-2.83,0.68-4.5c-58.26,0-116,0-174.06,0
		C863.68,529.5,863.68,579.39,863.68,629.5z"/>
	<path d="M400.57,955.01c54.78,0.12,99.2,44.62,99.16,99.35c-0.03,54.92-44.78,99.46-99.74,99.28
		c-54.68-0.19-99.06-44.87-98.91-99.6C301.22,999.31,345.84,954.9,400.57,955.01z"/>
	<path d="M965.52,955.01c54.77,0.02,99.28,44.48,99.32,99.2c0.04,54.94-44.64,99.54-99.59,99.43c-54.66-0.11-99.17-44.77-99.1-99.45
		C866.21,999.5,910.8,955,965.52,955.01z"/>
</g>
</svg>
